{
  "accessors": [
    {
      "bufferView": 2,
      "componentType": 5126,
      "count": 49559,
      "max": [
        5.778398036956787,
        -3.0895931720733643,
        20.080873489379883
      ],
      "min": [
        -5.998805046081543,
        -15.740423202514648,
        14.944317817687988
      ],
      "type": "VEC3"
    },
    {
      "bufferView": 0,
      "componentType": 5125,
      "count": 287260,
      "type": "SCALAR"
    },
    {
      "bufferView": 2,
      "byteOffset": 594708,
      "componentType": 5126,
      "count": 49367,
      "max": [
        5.778398036956787,
        -3.0895931720733643,
        20.080873489379883
      ],
      "min": [
        -5.998805046081543,
        -15.740423202514648,
        14.944317817687988
      ],
      "type": "VEC3"
    },
    {
      "bufferView": 0,
      "byteOffset": 1149040,
      "componentType": 5125,
      "count": 284008,
      "type": "SCALAR"
    },
    {
      "bufferView": 2,
      "byteOffset": 1187112,
      "componentType": 5126,
      "count": 65532,
      "max": [
        5.739898681640625,
        -3.133888006210327,
        19.80106544494629
      ],
      "min": [
        -5.9636030197143555,
        -15.688407897949219,
        14.944317817687988
      ],
      "type": "VEC3"
    },
    {
      "bufferView": 2,
      "byteOffset": 1973496,
      "componentType": 5126,
      "count": 65532,
      "max": [
        0.9999465942382813,
        0.9998496174812317,
        0.9999994039535522
      ],
      "min": [
        -0.9999465942382813,
        -0.9998496174812317,
        -0.9999994039535522
      ],
      "type": "VEC3"
    },
    {
      "bufferView": 1,
      "componentType": 5126,
      "count": 65532,
      "max": [
        19.84827995300293,
        83.38334655761719
      ],
      "min": [
        -518.2783813476563,
        0.012734060175716877
      ],
      "type": "VEC2"
    },
    {
      "bufferView": 0,
      "byteOffset": 2285072,
      "componentType": 5125,
      "count": 67320,
      "type": "SCALAR"
    },
    {
      "bufferView": 2,
      "byteOffset": 2759880,
      "componentType": 5126,
      "count": 65534,
      "max": [
        4.488402843475342,
        -3.2363204956054688,
        19.826066970825195
      ],
      "min": [
        -5.569551467895508,
        -15.503959655761719,
        15.015018463134766
      ],
      "type": "VEC3"
    },
    {
      "bufferView": 2,
      "byteOffset": 3546288,
      "componentType": 5126,
      "count": 65534,
      "max": [
        0.9999842047691345,
        0.9998571276664734,
        0.999940812587738
      ],
      "min": [
        -0.9999842047691345,
        -0.9998571276664734,
        -0.999940812587738
      ],
      "type": "VEC3"
    },
    {
      "bufferView": 1,
      "byteOffset": 524256,
      "componentType": 5126,
      "count": 65534,
      "max": [
        531.6588134765625,
        0.7546262145042419
      ],
      "min": [
        0.26206639409065247,
        -28.527759552001953
      ],
      "type": "VEC2"
    },
    {
      "bufferView": 0,
      "byteOffset": 2554352,
      "componentType": 5125,
      "count": 65838,
      "type": "SCALAR"
    },
    {
      "bufferView": 2,
      "byteOffset": 4332696,
      "componentType": 5126,
      "count": 65534,
      "max": [
        5.551071643829346,
        -9.293691635131836,
        19.829620361328125
      ],
      "min": [
        -4.151991367340088,
        -14.62574291229248,
        18.433425903320313
      ],
      "type": "VEC3"
    },
    {
      "bufferView": 2,
      "byteOffset": 5119104,
      "componentType": 5126,
      "count": 65534,
      "max": [
        0.9999821782112122,
        0.9999524354934692,
        0.9997649788856506
      ],
      "min": [
        -0.9999821782112122,
        -0.9999524354934692,
        -0.9997649788856506
      ],
      "type": "VEC3"
    },
    {
      "bufferView": 1,
      "byteOffset": 1048528,
      "componentType": 5126,
      "count": 65534,
      "max": [
        0.7498571872711182,
        0.5618875026702881
      ],
      "min": [
        -385.37359619140625,
        -25.884389877319336
      ],
      "type": "VEC2"
    },
    {
      "bufferView": 0,
      "byteOffset": 2817704,
      "componentType": 5125,
      "count": 65718,
      "type": "SCALAR"
    },
    {
      "bufferView": 2,
      "byteOffset": 5905512,
      "componentType": 5126,
      "count": 65532,
      "max": [
        5.62645959854126,
        -3.6343913078308105,
        19.985958099365234
      ],
      "min": [
        -4.172560214996338,
        -14.573627471923828,
        18.434415817260742
      ],
      "type": "VEC3"
    },
    {
      "bufferView": 2,
      "byteOffset": 6691896,
      "componentType": 5126,
      "count": 65532,
      "max": [
        0.9999260902404785,
        0.9997873902320862,
        0.9999871253967285
      ],
      "min": [
        -0.9999260902404785,
        -0.9997873902320862,
        -0.9999871253967285
      ],
      "type": "VEC3"
    },
    {
      "bufferView": 1,
      "byteOffset": 1572800,
      "componentType": 5126,
      "count": 65532,
      "max": [
        0.7264807224273682,
        0.56007319688797
      ],
      "min": [
        0.4921475946903229,
        0.3797683119773865
      ],
      "type": "VEC2"
    },
    {
      "bufferView": 0,
      "byteOffset": 3080576,
      "componentType": 5125,
      "count": 65964,
      "type": "SCALAR"
    },
    {
      "bufferView": 2,
      "byteOffset": 7478280,
      "componentType": 5126,
      "count": 65532,
      "max": [
        5.150003433227539,
        -4.382984638214111,
        19.78992462158203
      ],
      "min": [
        -4.292413234710693,
        -14.580670356750488,
        18.154281616210938
      ],
      "type": "VEC3"
    },
    {
      "bufferView": 2,
      "byteOffset": 8264664,
      "componentType": 5126,
      "count": 65532,
      "max": [
        0.9999762773513794,
        0.9998994469642639,
        0.9999828934669495
      ],
      "min": [
        -0.9999762773513794,
        -0.9998994469642639,
        -0.9999828934669495
      ],
      "type": "VEC3"
    },
    {
      "bufferView": 1,
      "byteOffset": 2097056,
      "componentType": 5126,
      "count": 65532,
      "max": [
        0.735662579536438,
        0.560800313949585
      ],
      "min": [
        0.4920580983161926,
        0.3797683119773865
      ],
      "type": "VEC2"
    },
    {
      "bufferView": 0,
      "byteOffset": 3344432,
      "componentType": 5125,
      "count": 65676,
      "type": "SCALAR"
    },
    {
      "bufferView": 2,
      "byteOffset": 9051048,
      "componentType": 5126,
      "count": 65532,
      "max": [
        1.6958658695220947,
        -6.414181709289551,
        19.82455825805664
      ],
      "min": [
        -5.835839748382568,
        -14.590620994567871,
        18.4846248626709
      ],
      "type": "VEC3"
    },
    {
      "bufferView": 2,
      "byteOffset": 9837432,
      "componentType": 5126,
      "count": 65532,
      "max": [
        0.9998411536216736,
        0.9999385476112366,
        0.9997121095657349
      ],
      "min": [
        -0.9998411536216736,
        -0.9999385476112366,
        -0.9997121095657349
      ],
      "type": "VEC3"
    },
    {
      "bufferView": 1,
      "byteOffset": 2621312,
      "componentType": 5126,
      "count": 65532,
      "max": [
        0.8196346759796143,
        12.849780082702637
      ],
      "min": [
        -430.29229736328125,
        -3.396897077560425
      ],
      "type": "VEC2"
    },
    {
      "bufferView": 0,
      "byteOffset": 3607136,
      "componentType": 5125,
      "count": 65772,
      "type": "SCALAR"
    },
    {
      "bufferView": 2,
      "byteOffset": 10623816,
      "componentType": 5126,
      "count": 65534,
      "max": [
        -1.3797670602798462,
        -3.941540241241455,
        19.82598304748535
      ],
      "min": [
        -5.440455436706543,
        -14.34040641784668,
        18.336971282958984
      ],
      "type": "VEC3"
    },
    {
      "bufferView": 2,
      "byteOffset": 11410224,
      "componentType": 5126,
      "count": 65534,
      "max": [
        0.9999821186065674,
        0.9999585151672363,
        0.9999197721481323
      ],
      "min": [
        -0.9999821186065674,
        -0.9999585151672363,
        -0.9999197721481323
      ],
      "type": "VEC3"
    },
    {
      "bufferView": 1,
      "byteOffset": 3145568,
      "componentType": 5126,
      "count": 65534,
      "max": [
        0.7358728051185608,
        0.5604059100151062
      ],
      "min": [
        0.3356049954891205,
        0.3797683119773865
      ],
      "type": "VEC2"
    },
    {
      "bufferView": 0,
      "byteOffset": 3870224,
      "componentType": 5125,
      "count": 65814,
      "type": "SCALAR"
    },
    {
      "bufferView": 2,
      "byteOffset": 12196632,
      "componentType": 5126,
      "count": 31906,
      "max": [
        0.17312942445278168,
        -3.2791528701782227,
        19.557519912719727
      ],
      "min": [
        -4.167574405670166,
        -13.825996398925781,
        18.51154136657715
      ],
      "type": "VEC3"
    },
    {
      "bufferView": 2,
      "byteOffset": 12579504,
      "componentType": 5126,
      "count": 31906,
      "max": [
        0.9998867511749268,
        0.9995967745780945,
        0.9998303651809692
      ],
      "min": [
        -0.9998867511749268,
        -0.9995967745780945,
        -0.9998303651809692
      ],
      "type": "VEC3"
    },
    {
      "bufferView": 1,
      "byteOffset": 3669840,
      "componentType": 5126,
      "count": 31906,
      "max": [
        0.6675543189048767,
        0.5602768063545227
      ],
      "min": [
        0.492057204246521,
        0.3797683119773865
      ],
      "type": "VEC2"
    },
    {
      "bufferView": 0,
      "byteOffset": 4133480,
      "componentType": 5125,
      "count": 31986,
      "type": "SCALAR"
    },
    {
      "bufferView": 2,
      "byteOffset": 12962376,
      "componentType": 5126,
      "count": 46684,
      "max": [
        5.256535530090332,
        -3.63632869720459,
        20.080873489379883
      ],
      "min": [
        -5.41223669052124,
        -14.887939453125,
        18.946422576904297
      ],
      "type": "VEC3"
    },
    {
      "bufferView": 2,
      "byteOffset": 13522584,
      "componentType": 5126,
      "count": 46684,
      "max": [
        0.9997286200523376,
        0.9987993836402893,
        0.9996577501296997
      ],
      "min": [
        -0.9997286200523376,
        -0.9987993836402893,
        -0.9996577501296997
      ],
      "type": "VEC3"
    },
    {
      "bufferView": 1,
      "byteOffset": 3925088,
      "componentType": 5126,
      "count": 46684,
      "max": [
        534.80517578125,
        98.37774658203125
      ],
      "min": [
        -510.5934143066406,
        -385.0198059082031
      ],
      "type": "VEC2"
    },
    {
      "bufferView": 0,
      "byteOffset": 4261424,
      "componentType": 5125,
      "count": 47232,
      "type": "SCALAR"
    },
    {
      "bufferView": 2,
      "byteOffset": 14082792,
      "componentType": 5126,
      "count": 17012,
      "max": [
        5.002793788909912,
        -3.8978774547576904,
        19.828800201416016
      ],
      "min": [
        -5.5464091300964355,
        -14.564603805541992,
        18.197057723999023
      ],
      "type": "VEC3"
    },
    {
      "bufferView": 2,
      "byteOffset": 14286936,
      "componentType": 5126,
      "count": 17012,
      "max": [
        0.999980628490448,
        0.9992838501930237,
        0.9997261166572571
      ],
      "min": [
        -0.999980628490448,
        -0.9992838501930237,
        -0.9997261166572571
      ],
      "type": "VEC3"
    },
    {
      "bufferView": 1,
      "byteOffset": 4298560,
      "componentType": 5126,
      "count": 17012,
      "max": [
        555.41357421875,
        525.3375244140625
      ],
      "min": [
        -555.460693359375,
        -443.9020080566406
      ],
      "type": "VEC2"
    },
    {
      "bufferView": 0,
      "byteOffset": 4450352,
      "componentType": 5125,
      "count": 17148,
      "type": "SCALAR"
    },
    {
      "bufferView": 2,
      "byteOffset": 14491080,
      "componentType": 5126,
      "count": 8148,
      "max": [
        5.778398036956787,
        -3.0895931720733643,
        19.325857162475586
      ],
      "min": [
        -5.998805046081543,
        -15.740423202514648,
        17.134048461914063
      ],
      "type": "VEC3"
    },
    {
      "bufferView": 2,
      "byteOffset": 14588856,
      "componentType": 5126,
      "count": 8148,
      "max": [
        0.9993847012519836,
        0.9996979832649231,
        0.9998034238815308
      ],
      "min": [
        -0.9993847012519836,
        -0.9996979832649231,
        -0.9998034238815308
      ],
      "type": "VEC3"
    },
    {
      "bufferView": 1,
      "byteOffset": 4434656,
      "componentType": 5126,
      "count": 8148,
      "max": [
        1.0131510496139526,
        1.00968599319458
      ],
      "min": [
        -0.01914989948272705,
        0.01622476987540722
      ],
      "type": "VEC2"
    },
    {
      "bufferView": 0,
      "byteOffset": 4518944,
      "componentType": 5125,
      "count": 8148,
      "type": "SCALAR"
    }
  ],
  "asset": {
    "extras": {
      "author": "katydid (https://sketchfab.com/Katydid.)",
      "license": "CC-BY-4.0 (http://creativecommons.org/licenses/by/4.0/)",
      "source": "https://sketchfab.com/3d-models/birthday-cake-ced4c2b289754d5380a237dad6380f0e",
      "title": "Birthday cake"
    },
    "generator": "Sketchfab-16.74.0",
    "version": "2.0"
  },
  "bufferViews": [
    {
      "buffer": 0,
      "byteLength": 4551536,
      "name": "floatBufferViews",
      "target": 34963
    },
    {
      "buffer": 0,
      "byteLength": 4499840,
      "byteOffset": 4551536,
      "byteStride": 8,
      "name": "floatBufferViews",
      "target": 34962
    },
    {
      "buffer": 0,
      "byteLength": 14686632,
      "byteOffset": 9051376,
      "byteStride": 12,
      "name": "floatBufferViews",
      "target": 34962
    }
  ],
  "buffers": [
    {
      "byteLength": 23738008,
      "uri": "scene.bin"
    }
  ],
  "images": [
    {
      "uri": "textures/auto_baseColor.jpeg"
    },
    {
      "uri": "textures/auto_2_baseColor.jpeg"
    },
    {
      "uri": "textures/auto_5_baseColor.jpeg"
    }
  ],
  "materials": [
    {
      "alphaMode": "BLEND",
      "name": "edge_color000255",
      "pbrMetallicRoughness": {
        "baseColorFactor": [
          1.0,
          1.0,
          1.0,
          0.0
        ],
        "metallicFactor": 0.0,
        "roughnessFactor": 0.6
      }
    },
    {
      "name": "auto",
      "pbrMetallicRoughness": {
        "baseColorTexture": {
          "index": 0
        },
        "metallicFactor": 0.0,
        "roughnessFactor": 0.6
      }
    },
    {
      "alphaMode": "BLEND",
      "name": "auto_2",
      "pbrMetallicRoughness": {
        "baseColorFactor": [
          1.0,
          1.0,
          1.0,
          0.870588
        ],
        "baseColorTexture": {
          "index": 1
        },
        "metallicFactor": 0.0,
        "roughnessFactor": 0.6
      }
    },
    {
      "name": "auto_4",
      "pbrMetallicRoughness": {
        "baseColorTexture": {
          "index": 0
        },
        "metallicFactor": 0.0,
        "roughnessFactor": 0.6
      }
    },
    {
      "name": "auto_5",
      "pbrMetallicRoughness": {
        "baseColorTexture": {
          "index": 2
        },
        "metallicFactor": 0.0,
        "roughnessFactor": 0.6
      }
    }
  ],
  "meshes": [
    {
      "name": "Material2",
      "primitives": [
        {
          "attributes": {
            "POSITION": 0
          },
          "indices": 1,
          "material": 0,
          "mode": 1
        }
      ]
    },
    {
      "name": "Material3",
      "primitives": [
        {
          "attributes": {
            "POSITION": 2
          },
          "indices": 3,
          "material": 0,
          "mode": 1
        }
      ]
    },
    {
      "name": "Material2",
      "primitives": [
        {
          "attributes": {
            "NORMAL": 5,
            "POSITION": 4,
            "TEXCOORD_0": 6
          },
          "indices": 7,
          "material": 1,
          "mode": 4
        }
      ]
    },
    {
      "name": "Material2",
      "primitives": [
        {
          "attributes": {
            "NORMAL": 9,
            "POSITION": 8,
            "TEXCOORD_0": 10
          },
          "indices": 11,
          "material": 1,
          "mode": 4
        }
      ]
    },
    {
      "name": "Material2",
      "primitives": [
        {
          "attributes": {
            "NORMAL": 13,
            "POSITION": 12,
            "TEXCOORD_0": 14
          },
          "indices": 15,
          "material": 1,
          "mode": 4
        }
      ]
    },
    {
      "name": "Material2",
      "primitives": [
        {
          "attributes": {
            "NORMAL": 17,
            "POSITION": 16,
            "TEXCOORD_0": 18
          },
          "indices": 19,
          "material": 1,
          "mode": 4
        }
      ]
    },
    {
      "name": "Material2",
      "primitives": [
        {
          "attributes": {
            "NORMAL": 21,
            "POSITION": 20,
            "TEXCOORD_0": 22
          },
          "indices": 23,
          "material": 1,
          "mode": 4
        }
      ]
    },
    {
      "name": "Material2",
      "primitives": [
        {
          "attributes": {
            "NORMAL": 25,
            "POSITION": 24,
            "TEXCOORD_0": 26
          },
          "indices": 27,
          "material": 1,
          "mode": 4
        }
      ]
    },
    {
      "name": "Material2",
      "primitives": [
        {
          "attributes": {
            "NORMAL": 29,
            "POSITION": 28,
            "TEXCOORD_0": 30
          },
          "indices": 31,
          "material": 1,
          "mode": 4
        }
      ]
    },
    {
      "name": "Material2",
      "primitives": [
        {
          "attributes": {
            "NORMAL": 33,
            "POSITION": 32,
            "TEXCOORD_0": 34
          },
          "indices": 35,
          "material": 1,
          "mode": 4
        }
      ]
    },
    {
      "name": "Material2",
      "primitives": [
        {
          "attributes": {
            "NORMAL": 37,
            "POSITION": 36,
            "TEXCOORD_0": 38
          },
          "indices": 39,
          "material": 2,
          "mode": 4
        }
      ]
    },
    {
      "name": "Material2",
      "primitives": [
        {
          "attributes": {
            "NORMAL": 41,
            "POSITION": 40,
            "TEXCOORD_0": 42
          },
          "indices": 43,
          "material": 3,
          "mode": 4
        }
      ]
    },
    {
      "name": "Material2",
      "primitives": [
        {
          "attributes": {
            "NORMAL": 45,
            "POSITION": 44,
            "TEXCOORD_0": 46
          },
          "indices": 47,
          "material": 4,
          "mode": 4
        }
      ]
    }
  ],
  "nodes": [
    {
      "children": [
        1
      ],
      "matrix": [
        1.0,
        0.0,
        0.0,
        0.0,
        0.0,
        2.220446049250313e-16,
        -1.0,
        0.0,
        0.0,
        1.0,
        2.220446049250313e-16,
        0.0,
        0.0,
        0.0,
        0.0,
        1.0
      ],
      "name": "Sketchfab_model"
    },
    {
      "children": [
        2,
        3,
        4,
        5,
        6,
        7,
        8,
        9,
        10,
        11,
        12,
        13,
        14,
        15
      ],
      "name": "Collada visual scene group"
    },
    {
      "mesh": 0,
      "name": "Material2"
    },
    {
      "mesh": 1,
      "name": "Material3"
    },
    {
      "mesh": 2,
      "name": "Material2"
    },
    {
      "mesh": 3,
      "name": "Material2"
    },
    {
      "mesh": 4,
      "name": "Material2"
    },
    {
      "mesh": 5,
      "name": "Material2"
    },
    {
      "mesh": 6,
      "name": "Material2"
    },
    {
      "mesh": 7,
      "name": "Material2"
    },
    {
      "mesh": 8,
      "name": "Material2"
    },
    {
      "mesh": 9,
      "name": "Material2"
    },
    {
      "mesh": 10,
      "name": "Material2"
    },
    {
      "mesh": 11,
      "name": "Material2"
    },
    {
      "mesh": 12,
      "name": "Material2"
    },
    {
      "children": [
        16
      ],
      "name": "SketchUp"
    },
    {
      "children": [
        17
      ],
      "matrix": [
        0.9935765,
        -0.1131622,
        6.938894e-18,
        0.0,
        0.04101311,
        0.3600995,
        0.932012,
        0.0,
        -0.1054686,
        -0.9260252,
        0.3624275,
        0.0,
        -3.147963,
        -28.4006,
        23.58204,
        1.0
      ],
      "name": "skp_camera_Last_Saved_SketchUp_View"
    },
    {
      "name": "ID1"
    }
  ],
  "samplers": [
    {
      "magFilter": 9729,
      "minFilter": 9987,
      "wrapS": 10497,
      "wrapT": 10497
    }
  ],
  "scene": 0,
  "scenes": [
    {
      "name": "Sketchfab_Scene",
      "nodes": [
        0
      ]
    }
  ],
  "textures": [
    {
      "sampler": 0,
      "source": 0
    },
    {
      "sampler": 0,
      "source": 1
    },
    {
      "sampler": 0,
      "source": 2
    }
  ]
}
